<?xml version="1.0" encoding="UTF-8" standalone="no"?>
<!DOCTYPE svg PUBLIC "-//W3C//DTD SVG 1.1//EN" "http://www.w3.org/Graphics/SVG/1.1/DTD/svg11.dtd">
<svg version="1.1" xmlns="http://www.w3.org/2000/svg" xmlns:xlink="http://www.w3.org/1999/xlink" preserveAspectRatio="xMidYMid meet" viewBox="0 0 43 24" width="43" height="24"><defs><path d="M39.71 1.21L39.96 1.25L40.2 1.31L40.44 1.39L40.67 1.48L40.9 1.58L41.11 1.7L41.32 1.83L41.52 1.97L41.7 2.13L41.88 2.29L42.05 2.47L42.2 2.66L42.35 2.86L42.48 3.06L42.6 3.28L42.7 3.5L42.79 3.73L42.86 3.97L42.92 4.22L42.97 4.47L42.99 4.72L43 4.98L43 20.2L42.99 20.46L42.97 20.71L42.92 20.96L42.86 21.2L42.79 21.44L42.7 21.67L42.6 21.9L42.48 22.11L42.35 22.32L42.2 22.52L42.05 22.7L41.88 22.88L41.7 23.05L41.52 23.2L41.32 23.35L41.11 23.48L40.9 23.6L40.67 23.7L40.44 23.79L40.2 23.86L39.96 23.92L39.71 23.97L39.46 23.99L39.2 24L4.96 24L4.7 23.99L4.44 23.97L4.19 23.92L3.95 23.86L3.71 23.79L3.48 23.7L3.26 23.6L3.04 23.48L2.84 23.35L2.64 23.2L2.45 23.05L2.27 22.88L2.11 22.7L1.95 22.52L1.81 22.32L1.68 22.11L1.56 21.9L1.46 21.67L1.37 21.44L1.29 21.2L1.23 20.96L1.19 20.71L1.16 20.46L1.15 20.2L1.15 4.98L1.16 4.72L1.19 4.47L1.23 4.22L1.29 3.97L1.37 3.73L1.46 3.5L1.56 3.28L1.68 3.06L1.81 2.86L1.95 2.66L2.11 2.47L2.27 2.29L2.45 2.13L2.64 1.97L2.84 1.83L3.04 1.7L3.26 1.58L3.48 1.48L3.71 1.39L3.95 1.31L4.19 1.25L4.44 1.21L4.7 1.18L4.96 1.18L39.2 1.18L39.46 1.18L39.71 1.21ZM10.67 10.69L4.96 10.69L4.96 14.49L10.67 14.49L10.67 20.2L14.47 20.2L14.47 14.49L20.18 14.49L20.18 10.69L14.47 10.69L14.47 4.98L10.67 4.98L10.67 10.69ZM26.72 13.42L26.11 14.33L25.88 15.44L26.11 16.55L26.72 17.46L27.62 18.07L28.73 18.29L29.85 18.07L30.75 17.46L31.36 16.55L31.59 15.44L31.36 14.33L30.75 13.42L29.85 12.81L28.73 12.59L27.62 12.81L26.72 13.42ZM34.32 7.72L33.71 8.62L33.49 9.73L33.71 10.85L34.32 11.75L35.23 12.36L36.34 12.59L37.45 12.36L38.36 11.75L38.97 10.85L39.2 9.73L38.97 8.62L38.36 7.72L37.45 7.11L36.34 6.88L35.23 7.11L34.32 7.72Z" id="b1O7vRqLO"></path><path d="M-1.82 34.32L-1.82 -11.32L43.82 -11.32L43.82 34.32L-1.82 34.32ZM3.62 0.1L3.37 0.12L3.12 0.17L2.87 0.22L2.64 0.3L2.4 0.39L2.18 0.49L1.97 0.61L1.76 0.74L1.56 0.88L1.37 1.04L1.19 1.21L1.03 1.38L0.87 1.57L0.73 1.77L0.6 1.98L0.48 2.19L0.38 2.41L0.29 2.65L0.21 2.88L0.16 3.13L0.11 3.38L0.09 3.63L0.08 3.89L0.08 19.11L0.09 19.37L0.11 19.62L0.16 19.87L0.21 20.12L0.29 20.35L0.38 20.59L0.48 20.81L0.6 21.02L0.73 21.23L0.87 21.43L1.03 21.62L1.19 21.79L1.37 21.96L1.56 22.12L1.76 22.26L1.97 22.39L2.18 22.51L2.4 22.61L2.64 22.7L2.87 22.78L3.12 22.83L3.37 22.88L3.62 22.9L3.88 22.91L38.12 22.91L38.29 22.91L38.46 22.89L38.64 22.85L38.81 22.81L38.97 22.75L39.14 22.67L39.31 22.59L39.47 22.49L39.63 22.38L39.8 22.25L39.96 22.11L40.12 21.96L40.27 21.8L40.43 21.62L40.59 21.43L40.74 21.22L40.89 21L41.04 20.77L41.19 20.53L41.34 20.27L41.49 20L41.63 19.72L41.78 19.42L41.92 19.11L41.92 3.89L41.91 3.63L41.89 3.38L41.84 3.13L41.79 2.88L41.71 2.65L41.62 2.41L41.52 2.19L41.4 1.98L41.27 1.77L41.13 1.57L40.97 1.38L40.81 1.21L40.63 1.04L40.44 0.88L40.24 0.74L40.03 0.61L39.82 0.49L39.6 0.39L39.36 0.3L39.13 0.22L38.88 0.17L38.63 0.12L38.38 0.1L38.12 0.09L3.88 0.09L3.62 0.1Z" id="d2PAv3ZWPo"></path><path d="M38.63 0.12L38.88 0.17L39.13 0.22L39.36 0.3L39.6 0.39L39.82 0.49L40.03 0.61L40.24 0.74L40.44 0.88L40.63 1.04L40.81 1.21L40.97 1.38L41.13 1.57L41.27 1.77L41.4 1.98L41.52 2.19L41.62 2.41L41.71 2.65L41.79 2.88L41.84 3.13L41.89 3.38L41.91 3.63L41.92 3.89L41.92 19.11L41.91 19.37L41.89 19.62L41.84 19.87L41.79 20.12L41.71 20.35L41.62 20.59L41.52 20.81L41.4 21.02L41.27 21.23L41.13 21.43L40.97 21.62L40.81 21.79L40.63 21.96L40.44 22.12L40.24 22.26L40.03 22.39L39.82 22.51L39.6 22.61L39.36 22.7L39.13 22.78L38.88 22.83L38.63 22.88L38.38 22.9L38.12 22.91L3.88 22.91L3.62 22.9L3.37 22.88L3.12 22.83L2.87 22.78L2.64 22.7L2.4 22.61L2.18 22.51L1.97 22.39L1.76 22.26L1.56 22.12L1.37 21.96L1.19 21.79L1.03 21.62L0.87 21.43L0.73 21.23L0.6 21.02L0.48 20.81L0.38 20.59L0.29 20.35L0.21 20.12L0.16 19.87L0.11 19.62L0.09 19.37L0.08 19.11L0.08 3.89L0.09 3.63L0.11 3.38L0.16 3.13L0.21 2.88L0.29 2.65L0.38 2.41L0.48 2.19L0.6 1.98L0.73 1.77L0.87 1.57L1.03 1.38L1.19 1.21L1.37 1.04L1.56 0.88L1.76 0.74L1.97 0.61L2.18 0.49L2.4 0.39L2.64 0.3L2.87 0.22L3.12 0.17L3.37 0.12L3.62 0.1L3.88 0.09L38.12 0.09L38.38 0.1L38.63 0.12ZM9.59 9.6L3.88 9.6L3.88 13.4L9.59 13.4L9.59 19.11L13.39 19.11L13.39 13.4L19.1 13.4L19.1 9.6L13.39 9.6L13.39 3.89L9.59 3.89L9.59 9.6ZM25.64 12.33L25.03 13.24L24.8 14.35L25.03 15.46L25.64 16.37L26.55 16.98L27.66 17.21L28.77 16.98L29.68 16.37L30.29 15.46L30.51 14.35L30.29 13.24L29.68 12.33L28.77 11.72L27.66 11.5L26.55 11.72L25.64 12.33ZM33.25 6.63L32.64 7.54L32.41 8.65L32.64 9.76L33.25 10.67L34.15 11.28L35.27 11.5L36.38 11.28L37.28 10.67L37.89 9.76L38.12 8.65L37.89 7.54L37.28 6.63L36.38 6.02L35.27 5.79L34.15 6.02L33.25 6.63Z" id="atYlW3vYo"></path><path d="M30.62 14.52C30.62 16.18 29.29 17.53 27.66 17.53C26.03 17.53 24.71 16.18 24.71 14.52C24.71 12.85 26.03 11.5 27.66 11.5C29.29 11.5 30.62 12.85 30.62 14.52Z" id="cTzzrdDEF"></path><path d="M4.03 9.54L4.03 13.46L9.74 13.46L9.74 19.45L13.61 19.45L13.61 13.46L19.32 13.46L19.32 9.54L13.61 9.54L13.61 3.55L9.74 3.55L9.74 9.54L4.03 9.54Z" id="bbeLbdehH"></path><path d="M3.3 9.11L3.3 13.02L9.01 13.02L9.01 19.01L12.88 19.01L12.88 13.02L18.59 13.02L18.59 9.11L12.88 9.11L12.88 3.11L9.01 3.11L9.01 9.11L3.3 9.11Z" id="c6Fy1gh3l"></path><path d="M29.89 14.08C29.89 15.75 28.57 17.1 26.93 17.1C25.3 17.1 23.98 15.75 23.98 14.08C23.98 12.42 25.3 11.06 26.93 11.06C28.57 11.06 29.89 12.42 29.89 14.08Z" id="b4BuYWA43"></path><path d="M38.41 8.91C38.41 10.58 37.08 11.93 35.45 11.93C33.82 11.93 32.5 10.58 32.5 8.91C32.5 7.25 33.82 5.89 35.45 5.89C37.08 5.89 38.41 7.25 38.41 8.91Z" id="a3oNcuQyQ"></path><path d="M37.68 8.48C37.68 10.14 36.35 11.49 34.72 11.49C33.09 11.49 31.77 10.14 31.77 8.48C31.77 6.81 33.09 5.46 34.72 5.46C36.35 5.46 37.68 6.81 37.68 8.48Z" id="cgqy3E7o"></path></defs><g><g><g><use xlink:href="#b1O7vRqLO" opacity="1" fill="#b9b9b9" fill-opacity="1"></use><g><use xlink:href="#b1O7vRqLO" opacity="1" fill-opacity="0" stroke="#000000" stroke-width="1" stroke-opacity="0"></use></g></g><g><use xlink:href="#d2PAv3ZWPo" opacity="1" fill="#000000" fill-opacity="0"></use><g><use xlink:href="#d2PAv3ZWPo" opacity="1" fill-opacity="0" stroke="#000000" stroke-width="1" stroke-opacity="0"></use></g></g><g><use xlink:href="#atYlW3vYo" opacity="1" fill="#3f51b5" fill-opacity="1"></use><g><use xlink:href="#atYlW3vYo" opacity="1" fill-opacity="0" stroke="#000000" stroke-width="1" stroke-opacity="0"></use></g></g><g><use xlink:href="#cTzzrdDEF" opacity="1" fill="#000000" fill-opacity="1"></use></g><g><use xlink:href="#bbeLbdehH" opacity="1" fill="#000000" fill-opacity="1"></use></g><g><use xlink:href="#c6Fy1gh3l" opacity="1" fill="#f50357" fill-opacity="1"></use></g><g><use xlink:href="#b4BuYWA43" opacity="1" fill="#f50357" fill-opacity="1"></use></g><g><use xlink:href="#a3oNcuQyQ" opacity="1" fill="#000000" fill-opacity="1"></use></g><g><use xlink:href="#cgqy3E7o" opacity="1" fill="#f50357" fill-opacity="1"></use></g></g></g></svg>